<svg id="Capa_1" data-name="Capa 1" xmlns="http://www.w3.org/2000/svg" xmlns:xlink="http://www.w3.org/1999/xlink" viewBox="0 0 500 500"><defs><style>.cls-1{fill:url(#Degradado_sin_nombre_40);}.cls-2{fill:url(#Degradado_sin_nombre_16);}.cls-3{fill:url(#Degradado_sin_nombre_16-2);}.cls-4{fill:url(#Degradado_sin_nombre_16-3);}.cls-5{fill:url(#Degradado_sin_nombre_16-4);}.cls-6{fill:url(#Degradado_sin_nombre_16-5);}.cls-7{fill:url(#Degradado_sin_nombre_16-6);}.cls-8{fill:url(#Degradado_sin_nombre_16-7);}.cls-9{fill:url(#Degradado_sin_nombre_16-8);}.cls-10{fill:url(#Degradado_sin_nombre_16-9);}.cls-11{fill:url(#Degradado_sin_nombre_16-10);}.cls-12{fill:url(#Degradado_sin_nombre_16-11);}.cls-13{fill:url(#Degradado_sin_nombre_16-12);}.cls-14{fill:url(#Degradado_sin_nombre_16-13);}.cls-15{fill:url(#Degradado_sin_nombre_16-14);}</style><linearGradient id="Degradado_sin_nombre_40" x1="167.46" y1="126.27" x2="376.23" y2="126.27" gradientUnits="userSpaceOnUse"><stop offset="0" stop-color="#985d41"/><stop offset="1" stop-color="#d19072"/></linearGradient><linearGradient id="Degradado_sin_nombre_16" x1="273.29" y1="187.32" x2="366.71" y2="187.32" gradientUnits="userSpaceOnUse"><stop offset="0" stop-color="#d19072"/><stop offset="1" stop-color="#985d41"/></linearGradient><linearGradient id="Degradado_sin_nombre_16-2" x1="197.51" y1="287.75" x2="265.66" y2="287.75" xlink:href="#Degradado_sin_nombre_16"/><linearGradient id="Degradado_sin_nombre_16-3" x1="273.29" y1="223.76" x2="295.73" y2="223.76" xlink:href="#Degradado_sin_nombre_16"/><linearGradient id="Degradado_sin_nombre_16-4" x1="197.51" y1="202.43" x2="260.29" y2="202.43" xlink:href="#Degradado_sin_nombre_16"/><linearGradient id="Degradado_sin_nombre_16-5" x1="200.99" y1="184.49" x2="265.66" y2="184.49" xlink:href="#Degradado_sin_nombre_16"/><linearGradient id="Degradado_sin_nombre_16-6" x1="273.29" y1="290.64" x2="348.34" y2="290.64" xlink:href="#Degradado_sin_nombre_16"/><linearGradient id="Degradado_sin_nombre_16-7" x1="126.07" y1="235.22" x2="216.93" y2="235.22" xlink:href="#Degradado_sin_nombre_16"/><linearGradient id="Degradado_sin_nombre_16-8" x1="356.8" y1="235.22" x2="447.66" y2="235.22" xlink:href="#Degradado_sin_nombre_16"/><linearGradient id="Degradado_sin_nombre_16-9" x1="278.72" y1="285.88" x2="369.75" y2="285.88" xlink:href="#Degradado_sin_nombre_16"/><linearGradient id="Degradado_sin_nombre_16-10" x1="340.79" y1="187.41" x2="376.22" y2="187.41" xlink:href="#Degradado_sin_nombre_16"/><linearGradient id="Degradado_sin_nombre_16-11" x1="314.15" y1="276.06" x2="376.22" y2="276.06" xlink:href="#Degradado_sin_nombre_16"/><linearGradient id="Degradado_sin_nombre_16-12" x1="157.71" y1="384.05" x2="198.13" y2="384.05" xlink:href="#Degradado_sin_nombre_16"/><linearGradient id="Degradado_sin_nombre_16-13" x1="366.15" y1="384.05" x2="406.56" y2="384.05" xlink:href="#Degradado_sin_nombre_16"/><linearGradient id="Degradado_sin_nombre_16-14" x1="26.79" y1="243.38" x2="420.43" y2="243.38" xlink:href="#Degradado_sin_nombre_16"/></defs><path class="cls-1" d="M359.14,134.13a50.2,50.2,0,0,0-12.48-31.07,55.56,55.56,0,0,0-32.11-18.84c.07.44.05.6.12.68.35.36.72.7,1.08,1,12.08,11.26,19.75,24.71,22.15,40.71,1.74,11.61.66,23.32,1,35H322c0-7.85.2-15.7,0-23.55-.71-23.82-12-41.12-35.13-51-1.7-.72-3.21-1.29-5.1-.51-17.19,7.13-28.85,19-33.7,36.38-3.57,12.73-1.56,25.84-1.69,38.8,0,11.76,0-11.41,0,.35-.06,4.77-.09,9.54-.19,14.31-.13,5.57-3.76,9.41-8.72,9.29s-8.13-3.82-8.19-9.29q-.08-7.89-.14-15.79c0-10.82,0,13.28,0,2.46a.65.65,0,0,0,0-.67.66.66,0,0,0,0-.68c0-8.47.2-16.94.09-25.41A61.93,61.93,0,0,1,232.82,115a71,71,0,0,1,21.07-30.56,6.43,6.43,0,0,0-1.39-.09C229.27,89.23,211,109.11,209,131.8c-.85,9.92-24.65,19.88-24.79,29.82a153.79,153.79,0,0,1-16.77,0c0-9.7,24-19.43,24.55-29.1,2-32.2,26.43-58.26,60.18-64.46a57.32,57.32,0,0,1,21.34-.21c6.55,1.24,13.22.6,20-.35,32.65-4.56,65.91,14.66,77.54,44.07a79.08,79.08,0,0,1,5.17,27.37"/><path class="cls-2" d="M350.49,220.28c10.46-8.73,16.22-20.4,16.22-32.87s-5.76-24.13-16.22-32.86C338.3,144.37,320.75,139,299.73,139H273.29v61.06l33.06,35.6C324.44,234.63,339.6,229.37,350.49,220.28Z"/><path class="cls-3" d="M197.51,293.71c0,20.81,15.72,37.73,35,37.73h33.11V244.05H197.51Z"/><polygon class="cls-4" points="273.29 235.84 295.73 235.84 273.29 211.68 273.29 235.84"/><path class="cls-5" d="M197.51,176.72v59.12h62.78L198.24,169A40.62,40.62,0,0,0,197.51,176.72Z"/><path class="cls-6" d="M265.66,139H232.55c-13.88,0-25.89,8.73-31.56,21.35L265.66,230Z"/><path class="cls-7" d="M273.29,249.83v81.61h67.89a32.53,32.53,0,0,0,7.16-.79Z"/><path class="cls-8" d="M215.94,336.05a42.39,42.39,0,0,1-13.57-9.85,46.18,46.18,0,0,1-9.14-14.6,48.66,48.66,0,0,1-3.35-17.89v-117a48.61,48.61,0,0,1,3.35-17.88,46.34,46.34,0,0,1,9.14-14.61,42.36,42.36,0,0,1,13.57-9.84l1-.44H137.08c-7.45,0-12.75,8.67-10.49,17.16l48.18,180.57a6.49,6.49,0,0,0,6.26,4.81h35.9Z"/><path class="cls-9" d="M436.65,134H356.8l1,.44a42.36,42.36,0,0,1,13.57,9.84,46.34,46.34,0,0,1,9.14,14.61,48.81,48.81,0,0,1,3.35,17.88v117a48.87,48.87,0,0,1-3.35,17.89,46.18,46.18,0,0,1-9.14,14.6,42.39,42.39,0,0,1-13.57,9.85l-1,.44h33.7a6.48,6.48,0,0,0,6.24-4.74l50.35-180.48C449.47,142.75,444.16,134,436.65,134Z"/><path class="cls-10" d="M369.75,315.54l-66.39-71.49H278.72l77.67,83.65A36.13,36.13,0,0,0,369.75,315.54Z"/><path class="cls-11" d="M376.22,176.72c0-20.8-15.72-37.73-35-37.73h-.39a65.68,65.68,0,0,1,14.37,9.06,54.07,54.07,0,0,1,14.33,18.19,48.65,48.65,0,0,1,0,42.35,54.07,54.07,0,0,1-14.33,18.19,65.68,65.68,0,0,1-14.37,9.06h35.43Z"/><path class="cls-12" d="M376.22,293.71V244.05H314.15l59.44,64A40.19,40.19,0,0,0,376.22,293.71Z"/><circle class="cls-13" cx="177.92" cy="384.05" r="20.21"/><circle class="cls-14" cx="386.36" cy="384.05" r="20.21"/><path class="cls-15" d="M407.76,352.78H163.38a0,0,0,0,1,0,0L97.86,118.48a12.27,12.27,0,0,0-11.82-9H39.47a12.53,12.53,0,0,0-12.68,12A12.25,12.25,0,0,0,39,134H76.76l0,0,65.49,234.27a12.27,12.27,0,0,0,11.82,9h.07a1.63,1.63,0,0,0,1.55-1.22c2.61-9.23,11.61-16,22.32-16s19.71,6.81,22.32,16a1.63,1.63,0,0,0,1.55,1.22H362a1.85,1.85,0,0,0,1.79-1.3c2.69-9.1,11.63-15.79,22.24-15.79s19.42,6.6,22.18,15.61a1.85,1.85,0,0,0,2.07,1.28,12.22,12.22,0,0,0,10.11-12.38A12.51,12.51,0,0,0,407.76,352.78Z"/></svg>